<?xml version="1.0" encoding="UTF-8" standalone="no"?>
<svg
   width="131"
   height="131"
   viewBox="0 0 131 131"
   fill="none"
   version="1.1"
   id="svg2"
   sodipodi:docname="cr.svg"
   inkscape:version="1.4 (e7c3feb100, 2024-10-09)"
   xmlns:inkscape="http://www.inkscape.org/namespaces/inkscape"
   xmlns:sodipodi="http://sodipodi.sourceforge.net/DTD/sodipodi-0.dtd"
   xmlns="http://www.w3.org/2000/svg"
   xmlns:svg="http://www.w3.org/2000/svg">
  <defs
     id="defs2" />
  <sodipodi:namedview
     id="namedview2"
     pagecolor="#ffffff"
     bordercolor="#000000"
     borderopacity="0.25"
     inkscape:showpageshadow="2"
     inkscape:pageopacity="0.0"
     inkscape:pagecheckerboard="0"
     inkscape:deskcolor="#d1d1d1"
     inkscape:zoom="5.6335878"
     inkscape:cx="65.588753"
     inkscape:cy="65.5"
     inkscape:window-width="1920"
     inkscape:window-height="950"
     inkscape:window-x="0"
     inkscape:window-y="0"
     inkscape:window-maximized="1"
     inkscape:current-layer="svg2" />
  <path
     d="M 131,65.5 C 131,101.675 101.675,131 65.5,131 29.3253,131 0,101.675 0,65.5 0,29.3253 29.3253,0 65.5,0 101.675,0 131,29.3253 131,65.5 Z m -124.32776,0 c 0,32.4897 26.33806,58.828 58.82776,58.828 32.4897,0 58.828,-26.3383 58.828,-58.828 C 124.328,33.0103 97.9897,6.67224 65.5,6.67224 33.0103,6.67224 6.67224,33.0103 6.67224,65.5 Z"
     fill="#ffffff"
     id="path1"
     style="display:inline;fill:#363b58;fill-opacity:1" />
  <path
     d="M 131,65.5 C 131,55.5774 128.746,45.7844 124.407,36.8605 120.068,27.9366 113.759,20.1151 105.955,13.9866 98.1513,7.85799 89.0571,3.58253 79.3591,1.483 69.6611,-0.616521 59.6128,-0.485228 49.973,1.86697 l 1.6135,6.61228 c 8.6381,-2.10777 17.6422,-2.22542 26.3324,-0.34407 8.6903,1.88132 16.8395,5.71252 23.8321,11.20432 6.993,5.4917 12.647,12.5005 16.535,20.497 3.888,7.9966 5.908,16.7719 5.908,25.6635 z"
     fill="#897eef"
     id="path2"
     style="display:inline" />
</svg>
