<svg width="131" height="131" viewBox="0 0 131 131" fill="none" xmlns="http://www.w3.org/2000/svg">
<path d="M131 65.5C131 101.675 101.675 131 65.5 131C29.3253 131 0 101.675 0 65.5C0 29.3253 29.3253 0 65.5 0C101.675 0 131 29.3253 131 65.5ZM6.67224 65.5C6.67224 97.9897 33.0103 124.328 65.5 124.328C97.9897 124.328 124.328 97.9897 124.328 65.5C124.328 33.0103 97.9897 6.67224 65.5 6.67224C33.0103 6.67224 6.67224 33.0103 6.67224 65.5Z" fill="white"/>
<path d="M131 65.5C131 55.5774 128.746 45.7844 124.407 36.8605C120.068 27.9366 113.759 20.1151 105.955 13.9866C98.1513 7.85799 89.0571 3.58253 79.3591 1.483C69.6611 -0.616521 59.6128 -0.485228 49.973 1.86697L51.5865 8.47925C60.2246 6.37148 69.2287 6.25383 77.9189 8.13518C86.6092 10.0165 94.7584 13.8477 101.751 19.3395C108.744 24.8312 114.398 31.84 118.286 39.8365C122.174 47.8331 124.194 56.6084 124.194 65.5H131Z" fill="#897EEF"/>
</svg>
