<svg width="1920" height="1080" viewBox="0 0 1920 1080" fill="none" xmlns="http://www.w3.org/2000/svg">
<path d="M122.494 0C122.494 864.397 122.494 1080.5 122.494 1080.5" stroke="#747474" stroke-opacity="0.22" stroke-width="1.07996"/>
<path d="M241.289 0C241.289 864.397 241.289 1080.5 241.289 1080.5" stroke="#747474" stroke-opacity="0.22" stroke-width="1.07996"/>
<path d="M360.084 0C360.084 864.397 360.084 1080.5 360.084 1080.5" stroke="#747474" stroke-opacity="0.22" stroke-width="1.07996"/>
<path d="M478.88 0C478.88 864.397 478.88 1080.5 478.88 1080.5" stroke="#747474" stroke-opacity="0.22" stroke-width="1.07996"/>
<path d="M597.675 0C597.675 864.397 597.675 1080.5 597.675 1080.5" stroke="#747474" stroke-opacity="0.22" stroke-width="1.07996"/>
<path d="M716.47 0C716.47 864.397 716.47 1080.5 716.47 1080.5" stroke="#747474" stroke-opacity="0.22" stroke-width="1.07996"/>
<path d="M835.265 0C835.265 864.397 835.265 1080.5 835.265 1080.5" stroke="#747474" stroke-opacity="0.22" stroke-width="1.07996"/>
<path d="M954.061 0C954.061 864.397 954.061 1080.5 954.061 1080.5" stroke="#747474" stroke-opacity="0.22" stroke-width="1.07996"/>
<path d="M1072.86 0C1072.86 864.397 1072.86 1080.5 1072.86 1080.5" stroke="#747474" stroke-opacity="0.22" stroke-width="1.07996"/>
<path d="M1191.65 0C1191.65 864.397 1191.65 1080.5 1191.65 1080.5" stroke="#747474" stroke-opacity="0.22" stroke-width="1.07996"/>
<path d="M1310.45 0C1310.45 864.397 1310.45 1080.5 1310.45 1080.5" stroke="#747474" stroke-opacity="0.22" stroke-width="1.07996"/>
<path d="M1429.24 0C1429.24 864.397 1429.24 1080.5 1429.24 1080.5" stroke="#747474" stroke-opacity="0.22" stroke-width="1.07996"/>
<path d="M1548.04 0C1548.04 864.397 1548.04 1080.5 1548.04 1080.5" stroke="#747474" stroke-opacity="0.22" stroke-width="1.07996"/>
<path d="M1666.83 0C1666.83 864.397 1666.83 1080.5 1666.83 1080.5" stroke="#747474" stroke-opacity="0.22" stroke-width="1.07996"/>
<path d="M1785.63 0C1785.63 864.397 1785.63 1080.5 1785.63 1080.5" stroke="#747474" stroke-opacity="0.22" stroke-width="1.07996"/>
<path d="M-26 72.3569C1548.14 72.3569 1944.56 72.3569 1946 72.3569" stroke="#747474" stroke-opacity="0.22" stroke-width="1.07996"/>
<path d="M-26 191.152C1548.14 191.152 1944.56 191.152 1946 191.152" stroke="#747474" stroke-opacity="0.22" stroke-width="1.07996"/>
<path d="M-26 309.947C1548.14 309.947 1944.56 309.947 1946 309.947" stroke="#747474" stroke-opacity="0.22" stroke-width="1.07996"/>
<path d="M-26 428.743C1548.14 428.743 1944.56 428.743 1946 428.743" stroke="#747474" stroke-opacity="0.22" stroke-width="1.07996"/>
<path d="M-26 547.538C1548.14 547.538 1944.56 547.538 1946 547.538" stroke="#747474" stroke-opacity="0.22" stroke-width="1.07996"/>
<path d="M-26 666.333C1548.14 666.333 1944.56 666.333 1946 666.333" stroke="#747474" stroke-opacity="0.22" stroke-width="1.07996"/>
<path d="M-26 785.128C1548.14 785.128 1944.56 785.128 1946 785.128" stroke="#747474" stroke-opacity="0.22" stroke-width="1.07996"/>
<path d="M-26 903.923C1548.14 903.923 1944.56 903.923 1946 903.923" stroke="#747474" stroke-opacity="0.22" stroke-width="1.07996"/>
<path d="M-26 1022.72C1548.14 1022.72 1944.56 1022.72 1946 1022.72" stroke="#747474" stroke-opacity="0.22" stroke-width="1.07996"/>
</svg>
